# xmcd CD database file
#
# Track frame offsets:
#	150
#	20726
#	40381
#	55328
#	69690
#	96456
#	106530
#	125725
#	143233
#	163882
#	186064
#	208980
#	227270
#
# Disc length: 3159 seconds
#
# Revision: 0
# Processed by: cddbd v1.5.2PL0 Copyright (c) Steve Scherf et al.
# Submitted via: CDex 1.70beta2
#
DISCID=c00c550d
DTITLE=Maria de Fatima - Stella
DYEAR=2012
DGENRE=Jazz
TTITLE0=Illuminados
TTITLE1=O Cantador
TTITLE2=Inútil Paisagem
TTITLE3=Roda Viva
TTITLE4=Isso e Aquillo
TTITLE5=Papillon
TTITLE6=Pra Dizer Adeus
TTITLE7=Canto De Ossanha
TTITLE8=Medo
TTITLE9=Velho Piano
TTITLE10=Vivo Sonhando
TTITLE11=Angustia
TTITLE12=Pra Dizer Adeu
EXTD=YEAR: 2012
EXTT0=
EXTT1=
EXTT2=
EXTT3=
EXTT4=
EXTT5=
EXTT6=
EXTT7=
EXTT8=
EXTT9=
EXTT10=
EXTT11=
EXTT12=
PLAYORDER=
